<?xml version="1.0" encoding="UTF-8" standalone="no"?><svg xmlns="http://www.w3.org/2000/svg" xmlns:xlink="http://www.w3.org/1999/xlink" fill="#000000" height="70.6" preserveAspectRatio="xMidYMid meet" version="1" viewBox="-3.3 -3.3 70.6 70.6" width="70.6" zoomAndPan="magnify">
 <g id="change1_1"><path d="m63.043 39.76c-4.277 17.106-21.619 27.56-38.803 23.283-17.106-4.277-27.56-21.619-23.283-38.803 4.277-17.106 21.619-27.56 38.803-23.283 17.106 4.277 27.56 21.619 23.283 38.803z" fill="#f23d73"/></g>
 <g id="change2_1"><path d="m46.096 27.407c0.634-4.276-2.613-6.573-7.048-8.077l1.425-5.78-3.484-0.87-1.425 5.623c-0.95-0.238-1.9-0.475-2.85-0.634l1.425-5.623-3.484-0.87-1.425 5.78c-0.792-0.158-1.505-0.317-2.217-0.554l-4.83-1.188-0.95 3.722 2.534 0.634c1.425 0.317 1.663 1.267 1.663 2.06l-1.666 6.57c0.08 0 0.238 0.08 0.396 0.08-0.08 0-0.238-0.08-0.396-0.08l-2.297 9.186c-0.158 0.396-0.634 1.1-1.584 0.87 0 0.08-2.534-0.634-2.534-0.634l-1.742 4.04 4.593 1.1c0.87 0.238 1.663 0.475 2.534 0.634l-1.425 5.86 3.484 0.87 1.425-5.78 2.782 0.724-1.425 5.78 3.484 0.87 1.425-5.86c6.018 1.1 10.453 0.713 12.354-4.75 1.505-4.355-0.08-6.9-3.247-8.553 2.376-0.475 4.04-1.98 4.514-5.147zm-7.998 11.323c-1.1 4.355-8.394 1.98-10.77 1.425l1.9-7.76c2.376 0.554 9.978 1.742 8.87 6.335zm1.1-11.324c-0.95 3.96-7.127 1.98-9.107 1.425l1.742-7.048c1.98 0.554 8.394 1.425 7.365 5.623z" fill="#ffffff"/></g>
</svg>